<?xml version="1.0" encoding="utf-8"?>
<!-- Generator: Adobe Illustrator 19.1.0, SVG Export Plug-In . SVG Version: 6.00 Build 0)  -->
<svg version="1.1" id="Layer_1" xmlns="http://www.w3.org/2000/svg" xmlns:xlink="http://www.w3.org/1999/xlink" x="0px" y="0px"
	 viewBox="0 0 38.3 38.3" style="enable-background:new 0 0 38.3 38.3;" xml:space="preserve">
<style type="text/css">
	.st0{fill:#008AB1;}
	.st1{fill:#FFFFFF;}
</style>
<g>
	<circle class="st0" cx="19.2" cy="19.2" r="19.2"/>
	<path id="LinkedIn_1_" class="st1" d="M28.7,21.7v6.4H25v-6c0-1.5-0.5-2.5-1.9-2.5c-1,0-1.6,0.7-1.9,1.4c-0.1,0.2-0.1,0.6-0.1,0.9
		v6.2h-3.7c0,0,0-10.1,0-11.1h3.7v1.6c0,0,0,0,0,0h0v0c0.5-0.8,1.4-1.8,3.3-1.8C26.8,16.7,28.7,18.3,28.7,21.7z M13.5,11.6
		c-1.3,0-2.1,0.8-2.1,1.9c0,1.1,0.8,1.9,2,1.9h0c1.3,0,2.1-0.9,2.1-1.9C15.5,12.5,14.8,11.6,13.5,11.6z M11.6,28.1h3.7V17h-3.7V28.1
		z"/>
</g>
</svg>
