<?xml version="1.0" encoding="utf-8"?>
<!-- Generator: Adobe Illustrator 19.1.0, SVG Export Plug-In . SVG Version: 6.00 Build 0)  -->
<svg version="1.1" xmlns="http://www.w3.org/2000/svg" xmlns:xlink="http://www.w3.org/1999/xlink" x="0px" y="0px"
	 viewBox="0 0 38.3 38.3" style="enable-background:new 0 0 38.3 38.3;" xml:space="preserve">
<style type="text/css">
	.st0{fill:#002B46;}
	.st1{fill:#008AB1;}
	.st2{fill:#FFFFFF;}
	.st3{fill:none;stroke:#002B46;stroke-miterlimit:10;}
	.st4{fill:#B5B5B5;}
	.st5{fill:#F2F2F2;}
	.st6{fill:#F9F9F9;}
	.st7{display:none;fill:#002B46;}
	.st8{fill:#082F42;}
	.st9{fill:#353535;}
	.st10{fill:#002A48;}
	.st11{fill:#E5E5E5;}
	.st12{fill:#0089B1;}
	.st13{clip-path:url(#XMLID_3_);}
	.st14{fill:#3A3A3A;}
	.st15{display:none;}
	.st16{display:inline;opacity:0.1;fill:#FF00FF;}
</style>
<g id="col-xs-12">
</g>
<g id="col-sm-12">
</g>
<g id="col-md-12">
	<g id="header-row">
		<g id="menu">
		</g>
		<g id="logo">
		</g>
		<g id="search">
		</g>
		<g id="social-media">
			<g>
				<circle class="st1" cx="19.2" cy="19.2" r="19.2"/>
				<path id="Twitter_2_" class="st2" d="M29.8,13.8c-0.7,0.3-1.5,0.5-2.3,0.6c0.8-0.5,1.5-1.3,1.8-2.2c-0.8,0.5-1.6,0.8-2.5,1
					c-0.7-0.8-1.8-1.3-2.9-1.3c-2.2,0-4,1.8-4,4c0,0.3,0,0.6,0.1,0.9c-3.3-0.2-6.3-1.8-8.3-4.2c-0.3,0.6-0.5,1.3-0.5,2
					c0,1.4,0.7,2.6,1.8,3.3c-0.7,0-1.3-0.2-1.8-0.5c0,0,0,0,0,0.1c0,1.9,1.4,3.6,3.2,3.9c-0.3,0.1-0.7,0.1-1.1,0.1
					c-0.3,0-0.5,0-0.8-0.1c0.5,1.6,2,2.7,3.7,2.8c-1.4,1.1-3.1,1.7-5,1.7c-0.3,0-0.6,0-1-0.1c1.8,1.1,3.9,1.8,6.1,1.8
					c7.4,0,11.4-6.1,11.4-11.4c0-0.2,0-0.3,0-0.5C28.6,15.3,29.3,14.6,29.8,13.8z"/>
			</g>
		</g>
	</g>
	<g id="slider-row">
	</g>
	<g id="index-row">
		<g id="welcome">
		</g>
		<g id="events">
			<g id="section">
			</g>
			<g id="section_1_">
			</g>
			<g id="section_2_">
			</g>
			<g id="section_4_">
			</g>
			<g id="section_5_">
			</g>
			<g id="section_3_">
			</g>
		</g>
		<g id="sponsors">
		</g>
	</g>
	<g id="footer-row">
	</g>
</g>
<g id="Guides" class="st15">
</g>
<g id="xs_highlight" class="st15">
</g>
<g id="sm_highlight" class="st15">
	<rect x="-4.6" y="-239.2" class="st16" width="53.3" height="1773.5"/>
</g>
<g id="md_highlight" class="st15">
</g>
</svg>
