<?xml version="1.0" encoding="utf-8"?>
<!-- Generator: Adobe Illustrator 19.1.0, SVG Export Plug-In . SVG Version: 6.00 Build 0)  -->
<svg version="1.1" id="Layer_1" xmlns="http://www.w3.org/2000/svg" xmlns:xlink="http://www.w3.org/1999/xlink" x="0px" y="0px"
	 viewBox="0 0 356 116" style="enable-background:new 0 0 356 116;" xml:space="preserve">
<style type="text/css">
	.st0{fill:#002B47;}
	.st1{fill:#FFFFFF;}
	.st2{fill:#008AB1;}
	.st3{fill:none;stroke:#002B47;stroke-miterlimit:10;}
</style>
<g>
	<g>
		<rect x="0" y="0" class="st0" width="116" height="116"/>
		<g>
			<g>
				<g>
					<path class="st1" d="M75.4,64.5H60.3V74h15.1v4.2H60.3v14.5h-4.6V60.3h19.7V64.5z"/>
					<path class="st1" d="M88.8,78.2h-5.2v14.6h-4.6V60.3h10.4c6.2,0,10,3.5,10,8.9C99.3,75.1,94.6,78.2,88.8,78.2z M88.9,64.5h-5.4
						V74h5.4c3.5,0,5.7-1.9,5.7-4.8C94.6,66.1,92.4,64.5,88.9,64.5z"/>
				</g>
			</g>
			<g>
				<polygon class="st1" points="51,60.3 45.2,60.3 18.6,92.8 24.4,92.8 31.4,84.4 				"/>
				<polygon class="st1" points="46.4,71.8 46.4,92.8 51,92.8 51,66.1 				"/>
			</g>
		</g>
		<g>
			<path class="st1" d="M104.4,65c-1.4,0-2.4-1-2.4-2.3c0-1.4,1.1-2.3,2.4-2.3c1.3,0,2.4,0.9,2.4,2.3C106.7,64,105.6,65,104.4,65z
				 M104.4,60.7c-1,0-1.9,0.8-1.9,1.9c0,1.1,0.7,1.9,1.9,1.9c1,0,1.8-0.8,1.8-1.9C106.2,61.5,105.4,60.7,104.4,60.7z M103.9,64h-0.4
				v-2.6h1c0.6,0,1,0.2,1,0.7c0,0.5-0.3,0.7-0.7,0.7l0.7,1.1H105l-0.7-1.1h-0.4V64z M104.4,62.5c0.3,0,0.6,0,0.6-0.4
				c0-0.3-0.3-0.4-0.6-0.4h-0.5v0.8H104.4z"/>
		</g>
		<g>
			<g>
				<path class="st0" d="M147,26.9h-2.9l-1.6-3.7h-7.3l-1.6,3.7h-2.8l6.8-15.5h2.5L147,26.9z M138.9,14.6l-2.6,6.2h5.3L138.9,14.6z"
					/>
				<path class="st0" d="M155.8,17.9c3.3,0.8,5,2,5,4.5c0,2.9-2.3,4.6-5.5,4.6c-2.4,0-4.6-0.8-6.4-2.5l1.6-1.9c1.5,1.3,3,2,4.9,2
					c1.7,0,2.7-0.8,2.7-2c0-1.1-0.6-1.7-3.5-2.4c-3.3-0.8-5.1-1.8-5.1-4.6c0-2.7,2.2-4.5,5.3-4.5c2.2,0,4,0.7,5.6,1.9l-1.5,2
					c-1.4-1-2.8-1.6-4.2-1.6c-1.6,0-2.5,0.8-2.5,1.8C152.2,16.7,152.9,17.2,155.8,17.9z"/>
				<path class="st0" d="M170.6,17.9c3.3,0.8,5,2,5,4.5c0,2.9-2.3,4.6-5.5,4.6c-2.4,0-4.6-0.8-6.4-2.5l1.6-1.9c1.5,1.3,3,2,4.9,2
					c1.7,0,2.7-0.8,2.7-2c0-1.1-0.6-1.7-3.5-2.4c-3.3-0.8-5.1-1.8-5.1-4.6c0-2.7,2.2-4.5,5.3-4.5c2.2,0,4,0.7,5.6,1.9l-1.5,2
					c-1.4-1-2.8-1.6-4.2-1.6c-1.6,0-2.5,0.8-2.5,1.8C166.9,16.7,167.6,17.2,170.6,17.9z"/>
				<path class="st0" d="M186.1,27.1c-4.7,0-8-3.6-8-7.9c0-4.4,3.3-8,8.1-8c4.7,0,8,3.6,8,7.9C194.2,23.5,190.8,27.1,186.1,27.1z
					 M186.1,13.7c-3.1,0-5.2,2.4-5.2,5.5c0,3,2.2,5.5,5.2,5.5c3.1,0,5.2-2.4,5.2-5.5C191.3,16.2,189.1,13.7,186.1,13.7z"/>
				<path class="st0" d="M205.1,27.1c-4.5,0-7.8-3.5-7.8-7.9c0-4.4,3.3-8,7.9-8c2.8,0,4.6,1,6,2.4l-1.7,2c-1.2-1.1-2.6-1.9-4.3-1.9
					c-3,0-5.1,2.4-5.1,5.5c0,3,2.1,5.5,5.1,5.5c1.9,0,3.1-0.8,4.4-2l1.7,1.8C209.7,26.1,207.9,27.1,205.1,27.1z"/>
				<path class="st0" d="M217.9,11.5v15.4h-2.7V11.5H217.9z"/>
				<path class="st0" d="M237.6,26.9h-2.9l-1.6-3.7h-7.3l-1.6,3.7h-2.8l6.8-15.5h2.5L237.6,26.9z M229.6,14.6l-2.6,6.2h5.3
					L229.6,14.6z"/>
				<path class="st0" d="M245.7,26.9H243V14h-4.9v-2.5h12.5V14h-4.9V26.9z"/>
				<path class="st0" d="M257.2,11.5v15.4h-2.7V11.5H257.2z"/>
				<path class="st0" d="M269.6,27.1c-4.7,0-8-3.6-8-7.9c0-4.4,3.3-8,8.1-8s8,3.6,8,7.9C277.6,23.5,274.3,27.1,269.6,27.1z
					 M269.6,13.7c-3.1,0-5.2,2.4-5.2,5.5c0,3,2.2,5.5,5.2,5.5c3.1,0,5.2-2.4,5.2-5.5C274.8,16.2,272.6,13.7,269.6,13.7z"/>
				<path class="st0" d="M292.6,11.5h2.7v15.4H293l-8.5-11v11h-2.7V11.5h2.5l8.3,10.7V11.5z"/>
				<path class="st0" d="M319.1,13.9h-8.8v4.2h7.8v2.5h-7.8v6.3h-2.7V11.5h11.5V13.9z"/>
				<path class="st0" d="M330.1,27.1c-4.7,0-8-3.6-8-7.9c0-4.4,3.3-8,8.1-8s8,3.6,8,7.9C338.2,23.5,334.9,27.1,330.1,27.1z
					 M330.1,13.7c-3.1,0-5.2,2.4-5.2,5.5c0,3,2.2,5.5,5.2,5.5s5.2-2.4,5.2-5.5C335.4,16.2,333.2,13.7,330.1,13.7z"/>
				<path class="st0" d="M352.3,26.9l-3.8-5.4h-3.4v5.4h-2.7V11.5h6.9c3.5,0,5.7,1.9,5.7,4.9c0,2.6-1.5,4.1-3.7,4.7l4.2,5.8H352.3z
					 M349,13.9h-3.9v5.2h4c1.9,0,3.2-1,3.2-2.6C352.2,14.8,351,13.9,349,13.9z"/>
				<path class="st0" d="M143.7,35.2H135v4.2h7.8v2.5H135v6.3h-2.7V32.7h11.5V35.2z"/>
				<path class="st0" d="M150.5,32.7v15.4h-2.7V32.7H150.5z"/>
				<path class="st0" d="M166.2,32.7h2.7v15.4h-2.3l-8.5-11v11h-2.7V32.7h2.5l8.3,10.7V32.7z"/>
				<path class="st0" d="M188.5,48.2h-2.9l-1.6-3.7h-7.3l-1.6,3.7h-2.8l6.8-15.5h2.5L188.5,48.2z M180.4,35.9l-2.6,6.2h5.3
					L180.4,35.9z"/>
				<path class="st0" d="M202.8,32.7h2.7v15.4h-2.3l-8.5-11v11H192V32.7h2.5l8.3,10.7V32.7z"/>
				<path class="st0" d="M230.3,32.7v15.4h-2.7V32.7H230.3z"/>
				<path class="st0" d="M250,48.2h-2.9l-1.6-3.7h-7.3l-1.6,3.7H234l6.8-15.5h2.5L250,48.2z M242,35.9l-2.6,6.2h5.3L242,35.9z"/>
				<path class="st0" d="M253.6,32.7h2.7v12.9h8.1v2.5h-10.8V32.7z"/>
				<path class="st0" d="M138,64.5H135v5h-2.7V54h6.1c3.6,0,5.9,2,5.9,5.2C144.2,62.7,141.4,64.5,138,64.5z M138.1,56.5H135V62h3.1
					c2,0,3.3-1.1,3.3-2.8C141.4,57.4,140.1,56.5,138.1,56.5z"/>
				<path class="st0" d="M157.7,69.4l-3.8-5.4h-3.4v5.4h-2.7V54h6.9c3.5,0,5.7,1.9,5.7,4.9c0,2.6-1.5,4.1-3.7,4.7l4.2,5.8H157.7z
					 M154.5,56.5h-3.9v5.2h4c1.9,0,3.2-1,3.2-2.6C157.7,57.4,156.5,56.5,154.5,56.5z"/>
				<path class="st0" d="M171.1,69.7c-4.7,0-8-3.6-8-7.9c0-4.4,3.3-8,8.1-8c4.7,0,8,3.6,8,7.9C179.2,66.1,175.9,69.7,171.1,69.7z
					 M171.1,56.3c-3.1,0-5.2,2.4-5.2,5.5c0,3,2.2,5.5,5.2,5.5c3.1,0,5.2-2.4,5.2-5.5C176.4,58.7,174.2,56.3,171.1,56.3z"/>
				<path class="st0" d="M194.4,56.5h-8.8v4.2h7.8v2.5h-7.8v6.3h-2.7V54h11.5V56.5z"/>
				<path class="st0" d="M209.7,56.5H201v4h7.7v2.4H201V67h8.8v2.4h-11.5V54h11.4V56.5z"/>
				<path class="st0" d="M219.9,60.5c3.3,0.8,5,2,5,4.5c0,2.9-2.3,4.6-5.5,4.6c-2.4,0-4.6-0.8-6.4-2.5l1.6-1.9c1.5,1.3,3,2,4.9,2
					c1.7,0,2.7-0.8,2.7-2c0-1.1-0.6-1.7-3.5-2.4c-3.3-0.8-5.1-1.8-5.1-4.6c0-2.7,2.2-4.5,5.3-4.5c2.2,0,4,0.7,5.6,1.9l-1.5,2
					c-1.4-1-2.8-1.6-4.2-1.6c-1.6,0-2.5,0.8-2.5,1.8C216.2,59.3,216.9,59.8,219.9,60.5z"/>
				<path class="st0" d="M234.6,60.5c3.3,0.8,5,2,5,4.5c0,2.9-2.3,4.6-5.5,4.6c-2.4,0-4.6-0.8-6.4-2.5l1.6-1.9c1.5,1.3,3,2,4.9,2
					c1.7,0,2.7-0.8,2.7-2c0-1.1-0.6-1.7-3.5-2.4c-3.3-0.8-5.1-1.8-5.1-4.6c0-2.7,2.2-4.5,5.3-4.5c2.2,0,4,0.7,5.6,1.9l-1.5,2
					c-1.4-1-2.8-1.6-4.2-1.6c-1.6,0-2.5,0.8-2.5,1.8C231,59.3,231.7,59.8,234.6,60.5z"/>
				<path class="st0" d="M246.5,54v15.4h-2.7V54H246.5z"/>
				<path class="st0" d="M258.9,69.7c-4.7,0-8-3.6-8-7.9c0-4.4,3.3-8,8.1-8s8,3.6,8,7.9C266.9,66.1,263.6,69.7,258.9,69.7z
					 M258.9,56.3c-3.1,0-5.2,2.4-5.2,5.5c0,3,2.2,5.5,5.2,5.5s5.2-2.4,5.2-5.5C264.1,58.7,261.9,56.3,258.9,56.3z"/>
				<path class="st0" d="M281.9,54h2.7v15.4h-2.3l-8.5-11v11h-2.7V54h2.5l8.3,10.7V54z"/>
				<path class="st0" d="M304.1,69.4h-2.9l-1.6-3.7h-7.3l-1.6,3.7h-2.8l6.8-15.5h2.5L304.1,69.4z M296.1,57.2l-2.6,6.2h5.3
					L296.1,57.2z"/>
				<path class="st0" d="M307.7,54h2.7V67h8.1v2.5h-10.8V54z"/>
				<path class="st0" d="M328.1,60.5c3.3,0.8,5,2,5,4.5c0,2.9-2.3,4.6-5.5,4.6c-2.4,0-4.6-0.8-6.4-2.5l1.6-1.9c1.5,1.3,3,2,4.9,2
					c1.7,0,2.7-0.8,2.7-2c0-1.1-0.6-1.7-3.5-2.4c-3.3-0.8-5.1-1.8-5.1-4.6c0-2.7,2.2-4.5,5.3-4.5c2.2,0,4,0.7,5.6,1.9l-1.5,2
					c-1.4-1-2.8-1.6-4.2-1.6c-1.6,0-2.5,0.8-2.5,1.8C324.5,59.3,325.2,59.8,328.1,60.5z"/>
			</g>
		</g>
	</g>
	<path class="st0" d="M217.3,48.4c-4.5,0-7.8-3.5-7.8-7.9c0-4.4,3.3-8,7.9-8c2.8,0,4.6,1,6,2.4l-1.7,2c-1.2-1.1-2.6-1.9-4.3-1.9
		c-3,0-5.1,2.4-5.1,5.5c0,3,2.1,5.5,5.1,5.5c1.9,0,3.1-0.8,4.4-2l1.7,1.8C222,47.4,220.2,48.4,217.3,48.4z"/>
	<g>
		<g>
			<path class="st2" d="M133.4,89.5h3.1l10.3,13.3V89.5h3.3v19.2h-2.8l-10.6-13.7v13.7h-3.3V89.5z"/>
			<path class="st2" d="M153.9,101.6L153.9,101.6c0-4.2,3.3-7.6,7.8-7.6c4.5,0,7.7,3.4,7.7,7.5v0.1c0,4.1-3.3,7.6-7.8,7.6
				C157.2,109.1,153.9,105.7,153.9,101.6z M166.1,101.6L166.1,101.6c0-2.6-1.8-4.7-4.5-4.7c-2.7,0-4.4,2.1-4.4,4.6v0.1
				c0,2.5,1.8,4.6,4.4,4.6C164.4,106.2,166.1,104.1,166.1,101.6z"/>
			<path class="st2" d="M172.8,94.2h3.3v3.3c0.9-2.2,2.6-3.7,5.1-3.5v3.5h-0.2c-2.9,0-4.9,1.9-4.9,5.7v5.5h-3.3V94.2z"/>
			<path class="st2" d="M184.8,104.7v-7.6H183v-2.9h1.8v-4h3.3v4h3.9v2.9h-3.9v7.1c0,1.3,0.7,1.8,1.8,1.8c0.7,0,1.4-0.2,2.1-0.5v2.7
				c-0.8,0.5-1.7,0.7-3,0.7C186.6,109,184.8,107.9,184.8,104.7z"/>
			<path class="st2" d="M195.4,88.7h3.3v7.8c0.9-1.3,2.3-2.5,4.5-2.5c3.3,0,5.2,2.2,5.2,5.6v9.3h-3.3v-8.2c0-2.3-1.1-3.5-3.1-3.5
				c-1.9,0-3.3,1.3-3.3,3.6v8.2h-3.3V88.7z"/>
			<path class="st2" d="M210.9,94.2h3.4l2.9,9.9l3.2-10h2.9l3.2,10l3-9.9h3.4l-4.8,14.6h-3l-3.2-9.9l-3.3,9.9h-3L210.9,94.2z"/>
			<path class="st2" d="M234.3,101.5L234.3,101.5c0-4.2,2.9-7.6,7.1-7.6c4.6,0,7,3.6,7,7.8c0,0.3,0,0.6-0.1,0.9h-10.7
				c0.4,2.4,2,3.7,4.2,3.7c1.6,0,2.8-0.6,3.9-1.7l2,1.7c-1.4,1.6-3.3,2.7-5.9,2.7C237.5,109.1,234.3,106,234.3,101.5z M245,100.5
				c-0.2-2.1-1.5-3.8-3.7-3.8c-2,0-3.5,1.6-3.8,3.8H245z"/>
			<path class="st2" d="M250.5,106.8l1.5-2.3c1.6,1.2,3.3,1.8,4.8,1.8c1.4,0,2.3-0.6,2.3-1.6v-0.1c0-1.1-1.5-1.5-3.2-2
				c-2.1-0.6-4.5-1.5-4.5-4.3v-0.1c0-2.7,2.3-4.4,5.2-4.4c1.8,0,3.8,0.6,5.3,1.6l-1.3,2.4c-1.4-0.9-2.9-1.4-4.1-1.4
				c-1.3,0-2,0.6-2,1.4v0.1c0,1.1,1.6,1.5,3.3,2.1c2.1,0.7,4.5,1.6,4.5,4.2v0.1c0,3.1-2.4,4.6-5.4,4.6
				C254.6,109,252.3,108.3,250.5,106.8z"/>
			<path class="st2" d="M265.8,104.7v-7.6H264v-2.9h1.8v-4h3.3v4h3.9v2.9h-3.9v7.1c0,1.3,0.7,1.8,1.8,1.8c0.7,0,1.4-0.2,2.1-0.5v2.7
				c-0.8,0.5-1.7,0.7-3,0.7C267.6,109,265.8,107.9,265.8,104.7z"/>
		</g>
	</g>
	<line class="st3" x1="356" y1="78.8" x2="131.1" y2="78.8"/>
</g>
</svg>
